<?xml version="1.0" encoding="UTF-8"?>
<svg version="1.1" xmlns="http://www.w3.org/2000/svg" width="111" height="60">
<path d="M0 0 C-0.98742187 0.55429687 -1.97484375 1.10859375 -2.9921875 1.6796875 C-4.28655535 2.41128672 -5.58082087 3.14306699 -6.875 3.875 C-7.52597656 4.23980469 -8.17695312 4.60460937 -8.84765625 4.98046875 C-11.50393354 6.48660536 -13.83019001 7.83019001 -16 10 C-14.92621094 9.44570312 -13.85242188 8.89140625 -12.74609375 8.3203125 C-11.31006109 7.58821742 -9.87385382 6.85646477 -8.4375 6.125 C-7.73302734 5.76019531 -7.02855469 5.39539063 -6.30273438 5.01953125 C-1.92534485 2.80057803 2.23641861 1.18933044 7 0 C7 0.66 7 1.32 7 2 C5.31583984 2.76183594 5.31583984 2.76183594 3.59765625 3.5390625 C2.08575331 4.23397441 0.57404499 4.92930984 -0.9375 5.625 C-1.67291016 5.95628906 -2.40832031 6.28757812 -3.16601562 6.62890625 C-4.68087536 7.3301077 -6.18156381 8.06261605 -7.66772461 8.82275391 C-10 10 -10 10 -12.53735352 11.00146484 C-15.42420491 12.39180133 -17.02956098 13.45182486 -19 16 C-20.27494939 21.83422436 -20.16543228 27.41831759 -20.0625 33.375 C-20.041875 38.86125 -20.02125 44.3475 -20 50 C-42.44 50 -64.88 50 -88 50 C-88 42.08 -88 34.16 -88 26 C-93.28 25.01 -98.56 24.02 -104 23 C-101.62526776 20.62526776 -100.37628347 20.4828067 -97.125 19.875 C-96.26132813 19.70742188 -95.39765625 19.53984375 -94.5078125 19.3671875 C-92 19 -92 19 -88 19 C-88 16.03 -88 13.06 -88 10 C-86.89365204 10.00785522 -86.89365204 10.00785522 -85.76495361 10.01586914 C-78.76336597 10.05841316 -71.76304458 10.06197119 -64.76150894 10.02334595 C-61.16300226 10.00482601 -57.56573924 10.00060564 -53.96728516 10.03076172 C-50.48467943 10.05939252 -47.00413324 10.04824607 -43.52162933 10.01119995 C-41.56770987 10.0002908 -39.61369559 10.02902376 -37.65997314 10.05883789 C-29.07691403 9.92227731 -24.17013284 7.93233941 -17.40765381 2.6171875 C-16.21586517 1.81667969 -16.21586517 1.81667969 -15 1 C-14.01 1.33 -13.02 1.66 -12 2 C-15.3 4.31 -18.6 6.62 -22 9 C-20.370625 8.0925 -18.74125 7.185 -17.0625 6.25 C-2.90323329 -1.45161665 -2.90323329 -1.45161665 0 0 Z M-20 11 C-19.67 11.66 -19.34 12.32 -19 13 C-18.67 12.34 -18.34 11.68 -18 11 C-18.66 11 -19.32 11 -20 11 Z " fill="#F8DB03" transform="translate(104,2)"/>
<path d="M0 0 C0 11.22 0 22.44 0 34 C-22.44 34 -44.88 34 -68 34 C-68 26.08 -68 18.16 -68 10 C-61.51508786 11.29698243 -57.93481257 13.94233182 -53.4375 18.625 C-50.1819482 21.93020073 -47.90742519 23.85553167 -43.11328125 24.09375 C-30.96735436 23.57040665 -21.15261268 15.14672513 -12 8 C-9.94446385 6.46976753 -7.88229178 4.94839452 -5.8125 3.4375 C-4.46091797 2.44556641 -4.46091797 2.44556641 -3.08203125 1.43359375 C-1 0 -1 0 0 0 Z " fill="#B02A24" transform="translate(84,18)"/>
<path d="M0 0 C19.8 0 39.6 0 60 0 C54.36558669 5.63441331 54.36558669 5.63441331 51.29296875 7.75390625 C50.62330078 8.21603516 49.95363281 8.67816406 49.26367188 9.15429688 C48.2359668 9.85135742 48.2359668 9.85135742 47.1875 10.5625 C46.51396484 11.03107422 45.84042969 11.49964844 45.14648438 11.98242188 C39.64257664 15.74825349 34.10081383 19.26708037 27.5625 20.8125 C22.60449983 19.68172803 20.37181662 16.86056726 17.015625 13.1640625 C15.00054093 10.83367534 15.00054093 10.83367534 12 9 C10.68 9 9.36 9 8 9 C9.010625 9.515625 10.02125 10.03125 11.0625 10.5625 C14.82450228 12.68818421 17.58116132 15.37163006 20.51953125 18.51171875 C22.65056052 20.65399356 23.91401761 20.98719411 26.9375 21.4375 C31.77390951 21.42733948 35.43484163 18.76541501 39.44921875 16.3125 C42 15 42 15 46 15 C40.47768027 19.83202976 33.99372946 23.55625228 26.625 24.375 C21.95418266 23.891812 21.03807744 22.49378906 18 19 C12.64242824 13.93373829 7.48972561 10.10143024 0 9 C0 6.03 0 3.06 0 0 Z " fill="#B02A24" transform="translate(16,12)"/>
<path d="M0 0 C-1.44632813 0.81404297 -1.44632813 0.81404297 -2.921875 1.64453125 C-4.19799877 2.3670425 -5.47403588 3.08970683 -6.75 3.8125 C-7.38421875 4.16892578 -8.0184375 4.52535156 -8.671875 4.89257812 C-11.34662122 6.41105384 -13.87134247 7.90264338 -16.328125 9.76171875 C-18 11 -18 11 -20 11 C-20.03867188 11.56460937 -20.07734375 12.12921875 -20.1171875 12.7109375 C-21.44406961 16.15143713 -24.17099446 17.63783913 -27.125 19.625 C-27.7452002 20.05304932 -28.36540039 20.48109863 -29.00439453 20.92211914 C-30.32156444 21.82757032 -31.64248377 22.72758754 -32.96679688 23.62255859 C-34.98398469 24.98915005 -36.98485468 26.37725441 -38.984375 27.76953125 C-40.28045862 28.66000712 -41.57731152 29.54936452 -42.875 30.4375 C-43.46812988 30.85016113 -44.06125977 31.26282227 -44.67236328 31.68798828 C-51.37409916 36.19988215 -57.84811157 38.9203745 -66 38 C-69.66131176 36.13344891 -71.69944759 34.39501174 -74.1875 31.125 C-77.66393566 26.61254047 -82.99797821 24.47035051 -88 22 C-87.34 21.67 -86.68 21.34 -86 21 C-78.88906507 23.69942434 -73.38312326 26.77879279 -69 33 C-64.95417689 35.69721541 -61.66648408 35.74774522 -57 35 C-46.41015783 31.37796703 -37.68887468 23.81437126 -29 17 C-29.72445312 17.48210938 -30.44890625 17.96421875 -31.1953125 18.4609375 C-32.64550781 19.40839844 -32.64550781 19.40839844 -34.125 20.375 C-35.07632813 21.00148438 -36.02765625 21.62796875 -37.0078125 22.2734375 C-39.97551093 23.98586923 -42.75410871 24.94220625 -46 26 C-47.83245177 27.00615417 -49.64559257 28.0482951 -51.4375 29.125 C-58.95266005 33.23802678 -58.95266005 33.23802678 -64 32 C-66.92775066 29.91842005 -69.4400766 27.51131726 -72 25 C-74.90018679 22.56120656 -77.53283677 20.54096144 -81 19 C-81 18.67 -81 18.34 -81 18 C-77.52739087 17.56358593 -76.27491292 17.79968864 -73.39453125 19.8984375 C-72.54246094 20.71570313 -71.69039062 21.53296875 -70.8125 22.375 C-69.95269531 23.18710937 -69.09289062 23.99921875 -68.20703125 24.8359375 C-66.79818354 26.21735632 -65.39520067 27.60479933 -64 29 C-53.93609612 30.71300492 -45.25731996 22.60125781 -37.5 17.125 C-34.65735229 15.09606334 -31.82625527 13.05169288 -29 11 C-28.40993164 10.57267578 -27.81986328 10.14535156 -27.21191406 9.70507812 C-24.83701878 7.98430332 -22.46610703 6.2584129 -20.1015625 4.5234375 C-18.42828168 3.31046441 -16.71958295 2.14638863 -15 1 C-14.01 1.33 -13.02 1.66 -12 2 C-15.3 4.31 -18.6 6.62 -22 9 C-20.370625 8.0925 -18.74125 7.185 -17.0625 6.25 C-2.90323329 -1.45161665 -2.90323329 -1.45161665 0 0 Z " fill="#B53622" transform="translate(104,2)"/>
<path d="M0 0 C1.32 0 2.64 0 4 0 C4.33 0.66 4.66 1.32 5 2 C7.32156597 2.40729228 9.6568787 2.74438677 12 3 C11.67 5.31 11.34 7.62 11 10 C2.09 10 -6.82 10 -16 10 C-16 7.69 -16 5.38 -16 3 C-14.92878906 2.95101563 -13.85757812 2.90203125 -12.75390625 2.8515625 C-11.35674361 2.77654706 -9.9596095 2.7009987 -8.5625 2.625 C-7.85544922 2.5940625 -7.14839844 2.563125 -6.41992188 2.53125 C-4.60760812 2.42719371 -2.80182012 2.22080108 -1 2 C-0.67 1.34 -0.34 0.68 0 0 Z M-10 4 C-10 5.65 -10 7.3 -10 9 C-9.67 9 -9.34 9 -9 9 C-9 7.35 -9 5.7 -9 4 C-9.33 4 -9.66 4 -10 4 Z M-7 4 C-7 4.99 -7 5.98 -7 7 C-6.34 7 -5.68 7 -5 7 C-5 6.01 -5 5.02 -5 4 C-5.66 4 -6.32 4 -7 4 Z M2 4 C2 5.65 2 7.3 2 9 C2.33 9 2.66 9 3 9 C3 7.35 3 5.7 3 4 C2.67 4 2.34 4 2 4 Z M4 4 C4 4.66 4 5.32 4 6 C4.99 6 5.98 6 7 6 C7 5.34 7 4.68 7 4 C6.01 4 5.02 4 4 4 Z M8 6 C7.67 6.66 7.34 7.32 7 8 C7.66 8 8.32 8 9 8 C8.67 7.34 8.34 6.68 8 6 Z M-2 7 C-2 7.66 -2 8.32 -2 9 C-1.34 9 -0.68 9 0 9 C0 8.34 0 7.68 0 7 C-0.66 7 -1.32 7 -2 7 Z " fill="#B02823" transform="translate(32,0)"/>
<path d="M0 0 C0.495 1.485 0.495 1.485 1 3 C-31.7394333 27.65722679 -31.7394333 27.65722679 -43.05078125 27.3125 C-47.7010744 26.56696202 -50.44158637 23.73391505 -53.1875 20.125 C-56.66393566 15.61254047 -61.99797821 13.47035051 -67 11 C-66.34 10.67 -65.68 10.34 -65 10 C-57.88906507 12.69942434 -52.38312326 15.77879279 -48 22 C-43.94835877 24.70109415 -40.67208958 24.73219314 -36 24 C-24.72797584 20.39777821 -15.29719628 11.75764868 -6.09960938 4.62231445 C-4.0804166 3.06213585 -2.04508813 1.52601703 0 0 Z " fill="#B73A21" transform="translate(83,13)"/>
<path d="M0 0 C0.66 0.33 1.32 0.66 2 1 C-15.06005222 14.77104529 -15.06005222 14.77104529 -24.625 16.75 C-29.65897453 15.63133899 -32.39456435 12.53697801 -36 9 C-38.90018679 6.56120656 -41.53283677 4.54096144 -45 3 C-45 2.67 -45 2.34 -45 2 C-41.52739087 1.56358593 -40.27491292 1.79968864 -37.39453125 3.8984375 C-36.54246094 4.71570313 -35.69039062 5.53296875 -34.8125 6.375 C-33.95269531 7.18710937 -33.09289062 7.99921875 -32.20703125 8.8359375 C-30.79818354 10.21735632 -29.39520067 11.60479933 -28 13 C-18.94983038 14.5404544 -11.38626866 8.04457565 -4.3125 3.125 C-2.87081213 2.08913718 -1.43166082 1.04967756 0 0 Z " fill="#F6D504" transform="translate(68,18)"/>
<path d="M0 0 C4.95 0 9.9 0 15 0 C15 1.98 15 3.96 15 6 C10.23692563 6.95261487 5.8333472 7.08333357 1 7 C0.31292445 4.50935112 0 2.62113708 0 0 Z M5 1 C6 3 6 3 6 3 Z M9 3 C10 5 10 5 10 5 Z M12 3 C12.33 3.66 12.66 4.32 13 5 C13.33 4.34 13.66 3.68 14 3 C13.34 3 12.68 3 12 3 Z M1 4 C1.33 4.66 1.66 5.32 2 6 C2.66 6 3.32 6 4 6 C4 5.34 4 4.68 4 4 C3.01 4 2.02 4 1 4 Z " fill="#AE2622" transform="translate(45,3)"/>
<path d="M0 0 C3.56359052 0.58862879 5.37265244 1.94265089 8 4.375 C12.89249514 9.13923521 12.89249514 9.13923521 19.0625 11.5625 C23.96563888 10.86205159 27.25943717 8.87259284 31.44921875 6.3125 C34 5 34 5 38 5 C32.47768027 9.83202976 25.99372946 13.55625228 18.625 14.375 C13.95418266 13.891812 13.03807744 12.49378906 10 9 C8.80762118 7.94010772 7.59848056 6.8988331 6.375 5.875 C4.14139951 4.00524394 2.03541895 2.08476244 0 0 Z " fill="#B73C21" transform="translate(24,22)"/>
<path d="M0 0 C0 0.66 0 1.32 0 2 C-1.12277344 2.50789062 -2.24554688 3.01578125 -3.40234375 3.5390625 C-14.32158811 8.5300688 -14.32158811 8.5300688 -24.43359375 14.96875 C-26 16 -26 16 -28 16 C-26.52219846 11.6443744 -23.33244597 10.08087472 -19.5 8 C-18.87577148 7.65259766 -18.25154297 7.30519531 -17.60839844 6.94726562 C-4.89346857 0 -4.89346857 0 0 0 Z " fill="#FEE800" transform="translate(111,2)"/>
<path d="M0 0 C0.99 0 1.98 0 3 0 C3 0.66 3 1.32 3 2 C4.65 2 6.3 2 8 2 C8 1.34 8 0.68 8 0 C9.32 0 10.64 0 12 0 C12 0.66 12 1.32 12 2 C13.32 2.33 14.64 2.66 16 3 C16 3.99 16 4.98 16 6 C10.72 6 5.44 6 0 6 C0 4.02 0 2.04 0 0 Z M10 3 C11 5 11 5 11 5 Z " fill="#AE2824" transform="translate(55,53)"/>
<path d="M0 0 C0.66 0.33 1.32 0.66 2 1 C0.67548828 1.74443359 0.67548828 1.74443359 -0.67578125 2.50390625 C-1.88842915 3.18938233 -3.10063715 3.87563697 -4.3125 4.5625 C-4.94389893 4.92021484 -5.57529785 5.27792969 -6.22583008 5.64648438 C-11.20997657 8.49420934 -16.02679051 11.54872886 -20.79296875 14.75 C-23 16 -23 16 -26 16 C-20.24975525 10.8026634 -14.40407685 6.90195583 -7.5 3.4375 C-6.44039062 2.89996094 -6.44039062 2.89996094 -5.359375 2.3515625 C-3.60505571 1.49820176 -1.80500875 0.74013793 0 0 Z " fill="#FEE800" transform="translate(102,1)"/>
<path d="M0 0 C3.63 0.33 7.26 0.66 11 1 C11.33 2.65 11.66 4.3 12 6 C8.04 6 4.08 6 0 6 C0 4.02 0 2.04 0 0 Z M5 3 C6 5 6 5 6 5 Z " fill="#AF2824" transform="translate(72,53)"/>
<path d="M0 0 C-1.72721684 1.27348212 -3.45686238 2.54367057 -5.1875 3.8125 C-6.15042969 4.52019531 -7.11335938 5.22789063 -8.10546875 5.95703125 C-10.69142333 7.78220567 -13.19102559 9.53972142 -16 11 C-16.66 10.67 -17.32 10.34 -18 10 C-16.44066679 8.72528295 -14.87738294 7.45539786 -13.3125 6.1875 C-12.44238281 5.47980469 -11.57226562 4.77210937 -10.67578125 4.04296875 C-3.74534161 -1.2484472 -3.74534161 -1.2484472 0 0 Z " fill="#FCE601" transform="translate(92,4)"/>
<path d="M0 0 C2.0625 0.4375 2.0625 0.4375 4 1 C-1.16923077 5.92307692 -1.16923077 5.92307692 -5.375 6.3125 C-6.674375 6.1578125 -6.674375 6.1578125 -8 6 C-5.76019711 2.64029566 -4.65777032 2.31304575 -1 1 C-0.67 0.67 -0.34 0.34 0 0 Z " fill="#C2551C" transform="translate(78,12)"/>
<path d="M0 0 C0.99 0.33 1.98 0.66 3 1 C0.20145256 4.29240875 -3.20673275 6.03562946 -7 8 C-7.99 8 -8.98 8 -10 8 C-8.40629329 6.63353852 -6.79967018 5.28212834 -5.1875 3.9375 C-4.29417969 3.18339844 -3.40085937 2.42929688 -2.48046875 1.65234375 C-1.25263672 0.83443359 -1.25263672 0.83443359 0 0 Z " fill="#F7DA03" transform="translate(86,9)"/>
</svg>
